HIERARCHY
ROOT m_avg_root
{
	OFFSET 0.000000 0.000000 0.000000
	CHANNELS 6 Xposition Yposition Zposition Xrotation Yrotation Zrotation
	JOINT m_avg_Pelvis
	{
		OFFSET -0.002174 0.972724 0.028584
		CHANNELS 6 Xposition Yposition Zposition Xrotation Yrotation Zrotation
		JOINT m_avg_L_Hip
		{
			OFFSET 0.058581 -0.082280 -0.017664
			CHANNELS 6 Xposition Yposition Zposition Xrotation Yrotation Zrotation
			JOINT m_avg_L_Knee
			{
				OFFSET 0.043451 -0.386469 0.008037
				CHANNELS 6 Xposition Yposition Zposition Xrotation Yrotation Zrotation
				JOINT m_avg_L_Ankle
				{
					OFFSET -0.014790 -0.426874 -0.037428
					CHANNELS 6 Xposition Yposition Zposition Xrotation Yrotation Zrotation
					JOINT m_avg_L_Foot
					{
						OFFSET 0.041054 -0.060286 0.122042
						CHANNELS 6 Xposition Yposition Zposition Xrotation Yrotation Zrotation
						End Site
						{
							OFFSET 0.000000 0.142177 0.000000
						}
					}
				}
			}
		}
		JOINT m_avg_R_Hip
		{
			OFFSET -0.060310 -0.090513 -0.013543
			CHANNELS 6 Xposition Yposition Zposition Xrotation Yrotation Zrotation
			JOINT m_avg_R_Knee
			{
				OFFSET -0.043257 -0.383688 -0.004843
				CHANNELS 6 Xposition Yposition Zposition Xrotation Yrotation Zrotation
				JOINT m_avg_R_Ankle
				{
					OFFSET 0.019056 -0.420046 -0.034562
					CHANNELS 6 Xposition Yposition Zposition Xrotation Yrotation Zrotation
					JOINT m_avg_R_Foot
					{
						OFFSET -0.034840 -0.062106 0.130323
						CHANNELS 6 Xposition Yposition Zposition Xrotation Yrotation Zrotation
						End Site
						{
							OFFSET 0.000000 0.148510 0.000000
						}
					}
				}
			}
		}
		JOINT m_avg_Spine1
		{
			OFFSET 0.004439 0.124404 -0.038385
			CHANNELS 6 Xposition Yposition Zposition Xrotation Yrotation Zrotation
			JOINT m_avg_Spine2
			{
				OFFSET 0.004488 0.137956 0.026820
				CHANNELS 6 Xposition Yposition Zposition Xrotation Yrotation Zrotation
				JOINT m_avg_Spine3
				{
					OFFSET -0.002265 0.056032 0.002855
					CHANNELS 6 Xposition Yposition Zposition Xrotation Yrotation Zrotation
					JOINT m_avg_Neck
					{
						OFFSET -0.013390 0.211635 -0.033468
						CHANNELS 6 Xposition Yposition Zposition Xrotation Yrotation Zrotation
						JOINT m_avg_Head
						{
							OFFSET 0.010113 0.088937 0.050410
							CHANNELS 6 Xposition Yposition Zposition Xrotation Yrotation Zrotation
							End Site
							{
								OFFSET 0.000000 0.102729 0.000000
							}
						}
					}
					JOINT m_avg_L_Collar
					{
						OFFSET 0.071702 0.114000 -0.018898
						CHANNELS 6 Xposition Yposition Zposition Xrotation Yrotation Zrotation
						JOINT m_avg_L_Shoulder
						{
							OFFSET 0.122921 0.045205 -0.019046
							CHANNELS 6 Xposition Yposition Zposition Xrotation Yrotation Zrotation
							JOINT m_avg_L_Elbow
							{
								OFFSET 0.255332 -0.015649 -0.022946
								CHANNELS 6 Xposition Yposition Zposition Xrotation Yrotation Zrotation
								JOINT m_avg_L_Wrist
								{
									OFFSET 0.265709 0.012698 -0.007375
									CHANNELS 6 Xposition Yposition Zposition Xrotation Yrotation Zrotation
									JOINT m_avg_L_Hand
									{
										OFFSET 0.086691 -0.010636 -0.015594
										CHANNELS 6 Xposition Yposition Zposition Xrotation Yrotation Zrotation
										End Site
										{
											OFFSET 0.000000 0.088722 0.000000
										}
									}
								}
							}
						}
					}
					JOINT m_avg_R_Collar
					{
						OFFSET -0.082954 0.112472 -0.023707
						CHANNELS 6 Xposition Yposition Zposition Xrotation Yrotation Zrotation
						JOINT m_avg_R_Shoulder
						{
							OFFSET -0.113228 0.046853 -0.008472
							CHANNELS 6 Xposition Yposition Zposition Xrotation Yrotation Zrotation
							JOINT m_avg_R_Elbow
							{
								OFFSET -0.260127 -0.014369 -0.031269
								CHANNELS 6 Xposition Yposition Zposition Xrotation Yrotation Zrotation
								JOINT m_avg_R_Wrist
								{
									OFFSET -0.269108 0.006794 -0.006027
									CHANNELS 6 Xposition Yposition Zposition Xrotation Yrotation Zrotation
									JOINT m_avg_R_Hand
									{
										OFFSET -0.088754 -0.008652 -0.010107
										CHANNELS 6 Xposition Yposition Zposition Xrotation Yrotation Zrotation
										End Site
										{
											OFFSET 0.000000 0.089745 0.000000
										}
									}
								}
							}
						}
					}
				}
			}
		}
	}
}
MOTION
Frames: 5
Frame Time: 0.041667
-0.195672 -0.090931 2.579474 -0.000000 0.000000 -0.000000 -0.197846 0.881792 2.608058 -175.463544 -4.074341 0.348427 0.058581 -0.082280 -0.017664 -27.586765 3.405387 15.662182 0.043451 -0.386469 0.008037 30.259425 -5.355416 -7.714103 -0.014790 -0.426874 -0.037428 2.604384 10.902585 -13.563490 0.041054 -0.060286 0.122043 -13.554564 4.865611 17.633938 -0.060310 -0.090513 -0.013542 -19.698657 0.344114 -13.288711 -0.043257 -0.383688 -0.004843 34.975059 11.861067 4.790185 0.019056 -0.420046 -0.034562 -6.960597 -9.401666 16.225744 -0.034840 -0.062106 0.130323 -8.301239 8.643447 -20.370341 0.004439 0.124403 -0.038385 14.036202 -1.080056 1.016552 0.004488 0.137956 0.026820 -4.281485 -2.326087 0.527373 -0.002265 0.056032 0.002855 6.350752 -2.769383 -0.210508 -0.013390 0.211636 -0.033468 -15.606914 4.009378 1.935478 0.010113 0.088938 0.050410 6.521116 1.307023 -1.786939 0.071703 0.114000 -0.018899 0.215833 8.351592 -14.026489 0.122921 0.045205 -0.019047 -5.141341 -1.651689 -28.813286 0.255332 -0.015649 -0.022946 -12.263004 -37.291081 11.355961 0.265709 0.012698 -0.007374 -2.079352 -1.339961 8.061376 0.086690 -0.010636 -0.015595 -9.746631 -2.966378 -11.074980 -0.082953 0.112473 -0.023707 0.286419 -5.558281 14.240854 -0.113228 0.046853 -0.008472 3.440376 5.965043 35.563979 -0.260128 -0.014369 -0.031269 -11.095449 45.516148 -10.117719 -0.269108 0.006794 -0.006028 -2.544575 2.734563 -5.752406 -0.088754 -0.008651 -0.010107 -7.191246 4.895253 11.291853 
-0.195672 -0.090931 2.579474 -0.000000 0.000000 -0.000000 -0.197846 0.881792 2.608058 -175.463544 -4.074341 0.348427 0.058581 -0.082280 -0.017664 -26.349784 3.773903 14.249272 0.043452 -0.386469 0.008037 30.459287 -5.705060 -8.262535 -0.014790 -0.426875 -0.037427 1.768231 9.925072 -13.441983 0.041054 -0.060286 0.122043 -13.961398 5.101295 17.496202 -0.060310 -0.090513 -0.013542 -20.416091 1.132916 -15.726215 -0.043257 -0.383688 -0.004843 34.481694 11.990079 3.312972 0.019056 -0.420046 -0.034562 -6.152959 -9.474378 16.767250 -0.034840 -0.062106 0.130323 -8.468501 8.616027 -21.140986 0.004439 0.124404 -0.038385 13.789958 -1.338174 1.917241 0.004488 0.137956 0.026820 -4.101906 -2.337710 -0.067825 -0.002265 0.056032 0.002856 6.658539 -2.842899 -2.036264 -0.013390 0.211636 -0.033468 -16.009823 4.127794 0.698436 0.010113 0.088938 0.050410 6.815606 2.211670 -2.912144 0.071703 0.114000 -0.018899 0.514877 8.329850 -14.964089 0.122921 0.045205 -0.019047 -4.962450 -1.733759 -31.132924 0.255332 -0.015649 -0.022947 -11.170865 -38.232349 12.987959 0.265709 0.012698 -0.007374 -2.827928 -1.290950 7.946154 0.086690 -0.010636 -0.015594 -9.488285 -3.061506 -11.217095 -0.082953 0.112472 -0.023707 0.662289 -5.330183 14.105725 -0.113228 0.046853 -0.008471 4.010442 5.989795 35.932563 -0.260127 -0.014370 -0.031269 -11.264610 45.475584 -9.882841 -0.269108 0.006794 -0.006027 -2.241810 2.588304 -5.891206 -0.088754 -0.008651 -0.010107 -7.377098 4.949335 11.402599 
-0.195672 -0.090931 2.579474 -0.000000 0.000000 -0.000000 -0.197846 0.881792 2.608058 -175.463544 -4.074341 0.348427 0.058581 -0.082280 -0.017664 -24.995173 4.071829 12.689867 0.043451 -0.386469 0.008037 30.665070 -6.093980 -8.788491 -0.014790 -0.426875 -0.037428 0.915082 9.007139 -13.282035 0.041054 -0.060286 0.122042 -14.355205 5.347883 17.382121 -0.060310 -0.090513 -0.013542 -21.013181 1.974696 -18.162224 -0.043257 -0.383688 -0.004843 34.273872 12.112492 1.777759 0.019055 -0.420046 -0.034562 -5.390360 -9.544389 17.282653 -0.034840 -0.062106 0.130323 -8.672120 8.583611 -21.888968 0.004439 0.124403 -0.038385 13.470292 -1.593171 2.796610 0.004488 0.137956 0.026821 -3.947845 -2.316423 -0.668381 -0.002265 0.056033 0.002855 6.882973 -2.885374 -3.836114 -0.013390 0.211636 -0.033468 -16.295071 4.064177 -0.410596 0.010113 0.088937 0.050410 7.135765 2.944576 -3.911659 0.071703 0.114000 -0.018898 0.758316 8.333529 -15.889510 0.122921 0.045205 -0.019045 -4.764893 -1.776373 -33.611334 0.255332 -0.015649 -0.022947 -10.027350 -39.294966 14.774094 0.265709 0.012698 -0.007374 -3.617353 -1.282524 7.896062 0.086690 -0.010636 -0.015595 -9.222683 -3.163775 -11.389063 -0.082954 0.112472 -0.023708 0.963244 -5.069222 13.915295 -0.113228 0.046853 -0.008471 4.516808 6.033494 36.472688 -0.260128 -0.014369 -0.031269 -11.314652 45.632364 -9.882523 -0.269109 0.006794 -0.006027 -2.009469 2.489683 -6.080836 -0.088754 -0.008651 -0.010108 -7.540875 5.013434 11.532801 
-0.195672 -0.090931 2.579474 -0.000000 0.000000 -0.000000 -0.197846 0.881792 2.608058 -175.463544 -4.074341 0.348427 0.058581 -0.082280 -0.017664 -23.528820 4.294718 11.052072 0.043451 -0.386469 0.008038 30.832697 -6.517498 -9.277408 -0.014790 -0.426875 -0.037428 0.052681 8.114115 -13.081524 0.041054 -0.060286 0.122042 -14.743570 5.613310 17.269838 -0.060310 -0.090513 -0.013542 -21.414567 2.823471 -20.536048 -0.043257 -0.383688 -0.004843 34.362241 12.183543 0.216331 0.019055 -0.420046 -0.034562 -4.700780 -9.606746 17.758263 -0.034840 -0.062105 0.130323 -8.932217 8.542918 -22.586454 0.004439 0.124403 -0.038385 13.054085 -1.828994 3.641191 0.004489 0.137956 0.026820 -3.803854 -2.257094 -1.259974 -0.002265 0.056033 0.002855 7.006563 -2.872908 -5.567852 -0.013390 0.211635 -0.033468 -16.422258 3.812734 -1.423363 0.010113 0.088938 0.050409 7.498420 3.482696 -4.811961 0.071702 0.114000 -0.018899 0.906153 8.288184 -16.759295 0.122921 0.045205 -0.019045 -4.650857 -1.854223 -36.263315 0.255332 -0.015649 -0.022946 -8.782204 -40.645824 16.840250 0.265709 0.012698 -0.007375 -4.472699 -1.334634 7.939456 0.086690 -0.010636 -0.015595 -8.907367 -3.276233 -11.581986 -0.082954 0.112472 -0.023707 1.135366 -4.707689 13.643773 -0.113229 0.046853 -0.008472 4.895184 6.139202 37.241589 -0.260128 -0.014369 -0.031269 -11.153824 46.114299 -10.243938 -0.269109 0.006794 -0.006027 -1.863257 2.449642 -6.332786 -0.088754 -0.008652 -0.010108 -7.665960 5.091597 11.677924 
-0.195672 -0.090931 2.579474 -0.000000 0.000000 -0.000000 -0.197846 0.881792 2.608058 -175.463544 -4.074341 0.348427 0.058581 -0.082280 -0.017664 -21.991973 4.444515 9.450601 0.043451 -0.386469 0.008036 30.938308 -6.955381 -9.670121 -0.014790 -0.426874 -0.037428 -0.792663 7.270502 -12.825299 0.041054 -0.060286 0.122042 -15.130206 5.901750 17.127615 -0.060310 -0.090513 -0.013542 -21.541824 3.591250 -22.634714 -0.043257 -0.383688 -0.004843 34.788059 12.165269 -1.260568 0.019056 -0.420046 -0.034561 -4.142018 -9.640855 18.153296 -0.034840 -0.062106 0.130323 -9.253884 8.501621 -23.172064 0.004439 0.124403 -0.038385 12.532638 -2.013909 4.407589 0.004489 0.137956 0.026821 -3.650397 -2.146828 -1.792410 -0.002264 0.056033 0.002855 7.036000 -2.767924 -7.118680 -0.013390 0.211635 -0.033467 -16.332463 3.391882 -2.284927 0.010113 0.088938 0.050411 7.894839 3.790284 -5.565973 0.071702 0.114000 -0.018898 0.870122 8.082213 -17.452597 0.122921 0.045205 -0.019045 -4.797128 -2.074441 -38.981471 0.255332 -0.015649 -0.022946 -7.340096 -42.544156 19.352740 0.265709 0.012698 -0.007374 -5.386774 -1.468135 8.110064 0.086690 -0.010636 -0.015595 -8.506960 -3.393596 -11.776520 -0.082954 0.112472 -0.023707 1.126928 -4.144127 13.266325 -0.113228 0.046853 -0.008471 5.088650 6.337037 38.254479 -0.260127 -0.014369 -0.031269 -10.671965 47.030405 -11.090147 -0.269108 0.006794 -0.006027 -1.824050 2.474268 -6.652160 -0.088754 -0.008651 -0.010107 -7.726639 5.186210 11.821446 
